{"glyphs":{"0":{"ha":1017,"x_min":0,"x_max":949,"o":"m 475 0 q 139 139 278 0 q 0 475 0 278 q 139 810 0 671 q 475 949 278 949 q 810 810 671 949 q 949 475 949 671 q 810 139 949 278 q 475 0 671 0 m 475 271 q 618 331 559 271 q 678 475 678 391 q 618 618 678 559 q 475 678 559 678 q 331 618 391 678 q 271 475 271 559 q 331 331 271 391 q 475 271 391 271 z "},"1":{"ha":475,"x_min":0,"x_max":407,"o":"m 407 0 l 136 0 l 136 678 l 0 678 l 0 949 l 407 949 l 407 0 z "},"2":{"ha":949,"x_min":0,"x_max":882,"o":"m 305 610 l 576 610 q 601 620 591 610 q 610 644 610 630 q 601 668 610 659 q 576 678 591 678 l 0 678 l 0 949 l 576 949 q 792 860 703 949 q 882 644 882 770 q 792 429 882 518 q 576 339 703 339 l 305 339 q 281 329 291 339 q 271 305 271 319 l 271 271 l 882 271 l 882 0 l 0 0 l 0 305 q 90 521 0 431 q 305 610 179 610 z "},"3":{"ha":882,"x_min":0,"x_max":814,"o":"m 509 610 q 533 620 523 610 q 543 644 543 630 q 533 668 543 659 q 509 678 523 678 l 0 678 l 0 949 l 509 949 q 724 860 635 949 q 814 644 814 770 q 763 475 814 549 q 814 305 814 400 q 724 90 814 179 q 509 0 635 0 l 0 0 l 0 271 l 509 271 q 533 281 523 271 q 543 305 543 291 q 533 329 543 319 q 509 339 523 339 l 0 339 l 0 610 l 509 610 z "},"4":{"ha":949,"x_min":0,"x_max":882,"o":"m 0 949 l 271 949 l 271 475 l 543 475 l 543 949 l 814 949 l 814 475 l 882 475 l 882 203 l 814 203 l 814 0 l 543 0 l 543 203 l 0 203 l 0 949 z "},"5":{"ha":949,"x_min":0,"x_max":882,"o":"m 882 949 l 882 678 l 271 678 l 271 610 l 576 610 q 792 521 703 610 q 882 305 882 431 q 792 90 882 179 q 576 0 703 0 l 0 0 l 0 271 l 576 271 q 601 281 591 271 q 610 305 610 291 q 601 329 610 319 q 576 339 591 339 l 0 339 l 0 949 l 882 949 z "},"6":{"ha":949,"x_min":0,"x_max":882,"o":"m 305 271 l 576 271 q 601 281 591 271 q 610 305 610 291 q 601 329 610 319 q 576 339 591 339 l 305 339 q 281 329 291 339 q 271 305 271 319 q 281 281 271 291 q 305 271 291 271 m 305 949 l 882 949 l 882 678 l 305 678 q 281 668 291 678 q 271 644 271 659 l 271 609 q 305 610 288 610 l 576 610 q 792 521 703 610 q 882 305 882 431 q 792 90 882 179 q 576 0 703 0 l 305 0 q 90 90 179 0 q 0 305 0 179 l 0 644 q 90 860 0 770 q 305 949 179 949 z "},"7":{"ha":1017,"x_min":-191,"x_max":1141,"o":"m 1141 949 l 191 0 l -191 0 l 487 678 l 0 678 l 0 949 l 1141 949 z "},"8":{"ha":949,"x_min":0,"x_max":882,"o":"m 305 610 l 576 610 q 601 620 591 610 q 610 644 610 630 q 601 668 610 659 q 576 678 591 678 l 305 678 q 281 668 291 678 q 271 644 271 659 q 281 620 271 630 q 305 610 291 610 m 305 339 q 281 329 291 339 q 271 305 271 319 q 281 281 271 291 q 305 271 291 271 l 576 271 q 601 281 591 271 q 610 305 610 291 q 601 329 610 319 q 576 339 591 339 l 305 339 m 51 475 q 0 644 0 549 q 90 860 0 770 q 305 949 179 949 l 576 949 q 792 860 703 949 q 882 644 882 770 q 831 475 882 549 q 882 305 882 400 q 792 90 882 179 q 576 0 703 0 l 305 0 q 90 90 179 0 q 0 305 0 179 q 51 475 0 400 z "},"9":{"ha":949,"x_min":0,"x_max":882,"o":"m 576 678 l 305 678 q 281 668 291 678 q 271 644 271 659 q 281 620 271 630 q 305 610 291 610 l 576 610 q 601 620 591 610 q 610 644 610 630 q 601 668 610 659 q 576 678 591 678 m 576 0 l 0 0 l 0 271 l 576 271 q 601 281 591 271 q 610 305 610 291 l 610 340 q 576 339 594 339 l 305 339 q 90 429 179 339 q 0 644 0 518 q 90 860 0 770 q 305 949 179 949 l 576 949 q 792 860 703 949 q 882 644 882 770 l 882 305 q 792 90 882 179 q 576 0 703 0 z "},"\u0000":{"ha":0,"x_min":0,"x_max":0,"o":""}," ":{"ha":203,"x_min":0,"x_max":0,"o":""},"!":{"ha":339,"x_min":0,"x_max":271,"o":"m 271 0 l 0 0 l 0 271 l 271 271 l 271 0 m 271 339 l 0 339 l 0 949 l 271 949 l 271 339 z "},"\"":{"ha":678,"x_min":0,"x_max":610,"o":"m 271 475 l 0 475 l 0 949 l 271 949 l 271 475 m 610 475 l 339 475 l 339 949 l 610 949 l 610 475 z "},"#":{"ha":949,"x_min":0,"x_max":882,"o":"m 136 407 l 136 543 l 0 543 l 0 814 l 136 814 l 136 949 l 407 949 l 407 814 l 475 814 l 475 949 l 746 949 l 746 814 l 882 814 l 882 543 l 746 543 l 746 407 l 882 407 l 882 136 l 746 136 l 746 0 l 475 0 l 475 136 l 407 136 l 407 0 l 136 0 l 136 136 l 0 136 l 0 407 l 136 407 m 407 543 l 407 407 l 475 407 l 475 543 l 407 543 z "},"$":{"ha":949,"x_min":0,"x_max":882,"o":"m 305 949 l 305 1085 l 576 1085 l 576 949 l 882 949 l 882 678 l 305 678 q 281 668 291 678 q 271 644 271 659 q 281 620 271 630 q 305 610 291 610 l 576 610 q 792 521 703 610 q 882 305 882 431 q 792 90 882 179 q 576 0 703 0 l 576 -136 l 305 -136 l 305 0 l 0 0 l 0 271 l 576 271 q 601 281 591 271 q 610 305 610 291 q 601 329 610 319 q 576 339 591 339 l 305 339 q 90 429 179 339 q 0 644 0 518 q 90 860 0 770 q 305 949 179 949 z "},"%":{"ha":1017,"x_min":-191,"x_max":1141,"o":"m 758 949 l 1141 949 l 191 0 l -191 0 l 758 949 m 271 678 l 0 678 l 0 949 l 271 949 l 271 678 m 949 0 l 678 0 l 678 271 l 949 271 l 949 0 z "},"&":{"ha":882,"x_min":0,"x_max":814,"o":"m 814 0 l 305 0 q 90 90 179 0 q 0 305 0 179 q 51 475 0 400 q 0 644 0 549 q 90 860 0 770 q 305 949 179 949 l 475 949 l 475 678 l 305 678 q 281 668 291 678 q 271 644 271 659 q 281 620 271 630 q 305 610 291 610 l 543 610 l 543 678 l 814 678 l 814 0 m 305 339 q 281 329 291 339 q 271 305 271 319 q 281 281 271 291 q 305 271 291 271 l 543 271 l 543 339 l 305 339 z "},"'":{"ha":339,"x_min":0,"x_max":271,"o":"m 271 475 l 0 475 l 0 949 l 271 949 l 271 475 z "},"(":{"ha":543,"x_min":0,"x_max":475,"o":"m 475 949 l 475 678 q 331 618 391 678 q 271 475 271 559 q 331 331 271 391 q 475 271 391 271 l 475 0 q 139 139 278 0 q 0 475 0 278 q 139 810 0 671 q 475 949 278 949 z "},")":{"ha":543,"x_min":0,"x_max":475,"o":"m 0 0 l 0 271 q 144 331 84 271 q 203 475 203 391 q 144 618 203 559 q 0 678 84 678 l 0 949 q 336 810 197 949 q 475 475 475 671 q 336 139 475 278 q 0 0 197 0 z "},"*":{"ha":678,"x_min":0,"x_max":610,"o":"m 170 509 l 0 509 l 0 780 l 170 780 l 170 949 l 441 949 l 441 780 l 610 780 l 610 509 l 441 509 l 441 339 l 170 339 l 170 509 z "},"+":{"ha":678,"x_min":0,"x_max":610,"o":"m 170 339 l 0 339 l 0 610 l 170 610 l 170 780 l 441 780 l 441 610 l 610 610 l 610 339 l 441 339 l 441 170 l 170 170 l 170 339 z "},",":{"ha":339,"x_min":0,"x_max":271,"o":"m 271 -203 l 0 -203 l 0 271 l 271 271 l 271 -203 z "},"-":{"ha":678,"x_min":0,"x_max":610,"o":"m 0 339 l 0 610 l 610 610 l 610 339 l 0 339 z "},".":{"ha":339,"x_min":0,"x_max":271,"o":"m 271 0 l 0 0 l 0 271 l 271 271 l 271 0 z "},"/":{"ha":1017,"x_min":-191,"x_max":1141,"o":"m 758 949 l 1141 949 l 191 0 l -191 0 l 758 949 z "},":":{"ha":339,"x_min":0,"x_max":271,"o":"m 271 0 l 0 0 l 0 271 l 271 271 l 271 0 m 271 423 l 0 423 l 0 694 l 271 694 l 271 423 z "},";":{"ha":339,"x_min":0,"x_max":271,"o":"m 271 -203 l 0 -203 l 0 271 l 271 271 l 271 -203 m 271 423 l 0 423 l 0 694 l 271 694 l 271 423 z "},"<":{"ha":543,"x_min":0,"x_max":475,"o":"m 475 949 l 475 678 q 331 618 391 678 q 271 475 271 559 q 331 331 271 391 q 475 271 391 271 l 475 0 q 139 139 278 0 q 0 475 0 278 q 139 810 0 671 q 475 949 278 949 z "},"=":{"ha":678,"x_min":0,"x_max":610,"o":"m 0 170 l 0 441 l 610 441 l 610 170 l 0 170 m 0 509 l 0 780 l 610 780 l 610 509 l 0 509 z "},">":{"ha":543,"x_min":0,"x_max":475,"o":"m 0 0 l 0 271 q 144 331 84 271 q 203 475 203 391 q 144 618 203 559 q 0 678 84 678 l 0 949 q 336 810 197 949 q 475 475 475 671 q 336 139 475 278 q 0 0 197 0 z "},"?":{"ha":882,"x_min":0,"x_max":814,"o":"m 509 678 l 0 678 l 0 949 l 509 949 q 724 860 635 949 q 814 644 814 770 q 724 429 814 518 q 509 339 635 339 l 0 339 l 0 610 l 509 610 q 533 620 523 610 q 543 644 543 630 q 533 668 543 659 q 509 678 523 678 m 271 0 l 0 0 l 0 271 l 271 271 l 271 0 z "},"@":{"ha":1017,"x_min":0,"x_max":949,"o":"m 475 339 q 379 379 418 339 q 339 475 339 418 q 379 571 339 531 q 475 610 418 610 q 571 571 531 610 q 610 475 610 531 q 571 379 610 418 q 475 339 531 339 m 475 271 q 618 331 559 271 q 678 475 678 391 q 618 618 678 559 q 475 678 559 678 q 331 618 391 678 q 271 475 271 559 q 331 331 271 391 q 475 271 391 271 m 475 0 q 139 139 278 0 q 0 475 0 278 q 139 810 0 671 q 475 949 278 949 q 810 810 671 949 q 949 475 949 671 q 810 139 949 278 q 475 0 671 0 z "},"A":{"ha":949,"x_min":-226,"x_max":882,"o":"m 610 0 l 610 452 l 158 0 l -226 0 l 724 949 l 882 949 l 882 0 l 610 0 z "},"B":{"ha":949,"x_min":0,"x_max":882,"o":"m 271 678 l 271 610 l 576 610 q 601 620 591 610 q 610 644 610 630 q 601 668 610 659 q 576 678 591 678 l 271 678 m 271 339 l 271 271 l 576 271 q 601 281 591 271 q 610 305 610 291 q 601 329 610 319 q 576 339 591 339 l 271 339 m 0 949 l 576 949 q 792 860 703 949 q 882 644 882 770 q 831 475 882 549 q 882 305 882 400 q 792 90 882 179 q 576 0 703 0 l 0 0 l 0 949 z "},"C":{"ha":882,"x_min":0,"x_max":814,"o":"m 475 949 l 814 949 l 814 678 l 475 678 q 331 618 391 678 q 271 475 271 559 q 331 331 271 391 q 475 271 391 271 l 814 271 l 814 0 l 475 0 q 139 139 278 0 q 0 475 0 278 q 139 810 0 671 q 475 949 278 949 z "},"D":{"ha":949,"x_min":0,"x_max":882,"o":"m 407 949 q 743 810 604 949 q 882 475 882 671 q 743 139 882 278 q 407 0 604 0 l 0 0 l 0 949 l 407 949 m 407 271 q 551 331 491 271 q 610 475 610 391 q 551 618 610 559 q 407 678 491 678 l 271 678 l 271 271 l 407 271 z "},"E":{"ha":882,"x_min":0,"x_max":814,"o":"m 271 271 l 814 271 l 814 0 l 0 0 l 0 949 l 814 949 l 814 678 l 271 678 l 271 610 l 746 610 l 746 339 l 271 339 l 271 271 z "},"F":{"ha":882,"x_min":0,"x_max":814,"o":"m 814 949 l 814 678 l 271 678 l 271 610 l 746 610 l 746 339 l 271 339 l 271 0 l 0 0 l 0 949 l 814 949 z "},"G":{"ha":882,"x_min":0,"x_max":814,"o":"m 475 949 l 814 949 l 814 678 l 475 678 q 331 618 391 678 q 271 475 271 559 q 331 331 271 391 q 475 271 391 271 l 543 271 l 543 339 l 475 339 l 475 610 l 814 610 l 814 0 l 475 0 q 139 139 278 0 q 0 475 0 278 q 139 810 0 671 q 475 949 278 949 z "},"H":{"ha":949,"x_min":0,"x_max":882,"o":"m 271 339 l 271 0 l 0 0 l 0 949 l 271 949 l 271 610 l 610 610 l 610 949 l 882 949 l 882 0 l 610 0 l 610 339 l 271 339 z "},"I":{"ha":339,"x_min":0,"x_max":271,"o":"m 271 0 l 0 0 l 0 949 l 271 949 l 271 0 z "},"J":{"ha":949,"x_min":0,"x_max":882,"o":"m 0 475 l 271 475 l 271 441 q 321 321 271 370 q 441 271 370 271 q 561 321 511 271 q 610 441 610 370 l 610 949 l 882 949 l 882 441 q 752 129 882 258 q 441 0 623 0 q 129 129 258 0 q 0 441 0 258 l 0 475 z "},"K":{"ha":949,"x_min":0,"x_max":906,"o":"m 271 530 l 715 974 l 906 783 l 598 475 l 906 167 l 715 -24 l 271 419 l 271 0 l 0 0 l 0 949 l 271 949 l 271 530 z "},"L":{"ha":882,"x_min":0,"x_max":814,"o":"m 0 949 l 271 949 l 271 271 l 814 271 l 814 0 l 0 0 l 0 949 z "},"M":{"ha":1017,"x_min":0,"x_max":949,"o":"m 475 249 l 271 452 l 271 0 l 0 0 l 0 949 l 158 949 l 475 633 l 791 949 l 949 949 l 949 0 l 678 0 l 678 452 l 475 249 z "},"N":{"ha":949,"x_min":0,"x_max":882,"o":"m 271 452 l 271 0 l 0 0 l 0 949 l 158 949 l 610 497 l 610 949 l 882 949 l 882 0 l 724 0 l 271 452 z "},"O":{"ha":1017,"x_min":0,"x_max":949,"o":"m 475 271 q 618 331 559 271 q 678 475 678 391 q 618 618 678 559 q 475 678 559 678 q 331 618 391 678 q 271 475 271 559 q 331 331 271 391 q 475 271 391 271 m 475 0 q 139 139 278 0 q 0 475 0 278 q 139 810 0 671 q 475 949 278 949 q 810 810 671 949 q 949 475 949 671 q 810 139 949 278 q 475 0 671 0 z "},"P":{"ha":949,"x_min":0,"x_max":882,"o":"m 271 610 l 576 610 q 601 620 591 610 q 610 644 610 630 q 601 668 610 659 q 576 678 591 678 l 271 678 l 271 610 m 271 339 l 271 0 l 0 0 l 0 949 l 576 949 q 792 860 703 949 q 882 644 882 770 q 792 429 882 518 q 576 339 703 339 l 271 339 z "},"Q":{"ha":1017,"x_min":0,"x_max":1042,"o":"m 475 271 q 618 331 559 271 q 678 475 678 391 q 618 618 678 559 q 475 678 559 678 q 331 618 391 678 q 271 475 271 559 q 331 331 271 391 q 475 271 391 271 m 702 56 q 475 0 600 0 q 139 139 278 0 q 0 475 0 278 q 139 810 0 671 q 475 949 278 949 q 810 810 671 949 q 949 475 949 671 q 893 248 949 349 l 1042 99 l 850 -92 l 702 56 z "},"R":{"ha":949,"x_min":0,"x_max":1005,"o":"m 271 610 l 576 610 q 601 620 591 610 q 610 644 610 630 q 601 668 610 659 q 576 678 591 678 l 271 678 l 271 610 m 271 339 l 271 0 l 0 0 l 0 949 l 576 949 q 792 860 703 949 q 882 644 882 770 q 792 429 882 518 q 656 349 732 369 l 1005 0 l 623 0 l 283 339 l 271 339 z "},"S":{"ha":949,"x_min":0,"x_max":882,"o":"m 305 339 q 90 429 179 339 q 0 644 0 518 q 90 860 0 770 q 305 949 179 949 l 882 949 l 882 678 l 305 678 q 281 668 291 678 q 271 644 271 659 q 281 620 271 630 q 305 610 291 610 l 576 610 q 792 521 703 610 q 882 305 882 431 q 792 90 882 179 q 576 0 703 0 l 0 0 l 0 271 l 576 271 q 601 281 591 271 q 610 305 610 291 q 601 329 610 319 q 576 339 591 339 l 305 339 z "},"T":{"ha":882,"x_min":0,"x_max":814,"o":"m 543 678 l 543 0 l 271 0 l 271 678 l 0 678 l 0 949 l 814 949 l 814 678 l 543 678 z "},"U":{"ha":949,"x_min":0,"x_max":882,"o":"m 0 949 l 271 949 l 271 441 q 321 321 271 370 q 441 271 370 271 q 561 321 511 271 q 610 441 610 370 l 610 949 l 882 949 l 882 441 q 752 129 882 258 q 441 0 623 0 q 129 129 258 0 q 0 441 0 258 l 0 949 z "},"V":{"ha":949,"x_min":-226,"x_max":882,"o":"m 610 949 l 882 949 l 882 0 l 724 0 l -226 949 l 158 949 l 610 497 l 610 949 z "},"W":{"ha":1017,"x_min":0,"x_max":949,"o":"m 475 317 l 158 0 l 0 0 l 0 949 l 271 949 l 271 497 l 475 701 l 678 497 l 678 949 l 949 949 l 949 0 l 791 0 l 475 317 z "},"X":{"ha":1017,"x_min":-191,"x_max":1141,"o":"m 283 475 l -24 783 l 167 974 l 475 666 l 758 949 l 1141 949 l 666 475 l 974 167 l 783 -24 l 475 283 l 191 0 l -191 0 l 283 475 z "},"Y":{"ha":1017,"x_min":-191,"x_max":1141,"o":"m 283 475 l -24 783 l 167 974 l 475 666 l 758 949 l 1141 949 l 191 0 l -191 0 l 283 475 z "},"Z":{"ha":1017,"x_min":-191,"x_max":1141,"o":"m 487 678 l 0 678 l 0 949 l 1141 949 l 463 271 l 949 271 l 949 0 l -191 0 l 487 678 z "},"[":{"ha":543,"x_min":0,"x_max":475,"o":"m 475 949 l 475 678 l 271 678 l 271 271 l 475 271 l 475 0 l 0 0 l 0 949 l 475 949 z "},"\\":{"ha":1017,"x_min":-191,"x_max":1141,"o":"m 758 0 l -191 949 l 191 949 l 1141 0 l 758 0 z "},"]":{"ha":543,"x_min":0,"x_max":475,"o":"m 0 0 l 0 271 l 203 271 l 203 678 l 0 678 l 0 949 l 475 949 l 475 0 l 0 0 z "},"^":{"ha":339,"x_min":0,"x_max":271,"o":"m 271 475 l 0 475 l 0 949 l 271 949 l 271 475 z "},"_":{"ha":882,"x_min":0,"x_max":814,"o":"m 0 0 l 0 271 l 814 271 l 814 0 l 0 0 z "},"`":{"ha":339,"x_min":0,"x_max":271,"o":"m 271 475 l 0 475 l 0 949 l 271 949 l 271 475 z "},"a":{"ha":949,"x_min":-226,"x_max":882,"o":"m 610 0 l 610 452 l 158 0 l -226 0 l 724 949 l 882 949 l 882 0 l 610 0 z "},"b":{"ha":949,"x_min":0,"x_max":882,"o":"m 271 678 l 271 610 l 576 610 q 601 620 591 610 q 610 644 610 630 q 601 668 610 659 q 576 678 591 678 l 271 678 m 271 339 l 271 271 l 576 271 q 601 281 591 271 q 610 305 610 291 q 601 329 610 319 q 576 339 591 339 l 271 339 m 0 949 l 576 949 q 792 860 703 949 q 882 644 882 770 q 831 475 882 549 q 882 305 882 400 q 792 90 882 179 q 576 0 703 0 l 0 0 l 0 949 z "},"c":{"ha":882,"x_min":0,"x_max":814,"o":"m 475 949 l 814 949 l 814 678 l 475 678 q 331 618 391 678 q 271 475 271 559 q 331 331 271 391 q 475 271 391 271 l 814 271 l 814 0 l 475 0 q 139 139 278 0 q 0 475 0 278 q 139 810 0 671 q 475 949 278 949 z "},"d":{"ha":949,"x_min":0,"x_max":882,"o":"m 407 949 q 743 810 604 949 q 882 475 882 671 q 743 139 882 278 q 407 0 604 0 l 0 0 l 0 949 l 407 949 m 407 271 q 551 331 491 271 q 610 475 610 391 q 551 618 610 559 q 407 678 491 678 l 271 678 l 271 271 l 407 271 z "},"e":{"ha":882,"x_min":0,"x_max":814,"o":"m 271 271 l 814 271 l 814 0 l 0 0 l 0 949 l 814 949 l 814 678 l 271 678 l 271 610 l 746 610 l 746 339 l 271 339 l 271 271 z "},"f":{"ha":882,"x_min":0,"x_max":814,"o":"m 814 949 l 814 678 l 271 678 l 271 610 l 746 610 l 746 339 l 271 339 l 271 0 l 0 0 l 0 949 l 814 949 z "},"g":{"ha":882,"x_min":0,"x_max":814,"o":"m 475 949 l 814 949 l 814 678 l 475 678 q 331 618 391 678 q 271 475 271 559 q 331 331 271 391 q 475 271 391 271 l 543 271 l 543 339 l 475 339 l 475 610 l 814 610 l 814 0 l 475 0 q 139 139 278 0 q 0 475 0 278 q 139 810 0 671 q 475 949 278 949 z "},"h":{"ha":949,"x_min":0,"x_max":882,"o":"m 271 339 l 271 0 l 0 0 l 0 949 l 271 949 l 271 610 l 610 610 l 610 949 l 882 949 l 882 0 l 610 0 l 610 339 l 271 339 z "},"i":{"ha":339,"x_min":0,"x_max":271,"o":"m 271 0 l 0 0 l 0 949 l 271 949 l 271 0 z "},"j":{"ha":949,"x_min":0,"x_max":882,"o":"m 0 475 l 271 475 l 271 441 q 321 321 271 370 q 441 271 370 271 q 561 321 511 271 q 610 441 610 370 l 610 949 l 882 949 l 882 441 q 752 129 882 258 q 441 0 623 0 q 129 129 258 0 q 0 441 0 258 l 0 475 z "},"k":{"ha":949,"x_min":0,"x_max":906,"o":"m 271 530 l 715 974 l 906 783 l 598 475 l 906 167 l 715 -24 l 271 419 l 271 0 l 0 0 l 0 949 l 271 949 l 271 530 z "},"l":{"ha":882,"x_min":0,"x_max":814,"o":"m 0 949 l 271 949 l 271 271 l 814 271 l 814 0 l 0 0 l 0 949 z "},"m":{"ha":1017,"x_min":0,"x_max":949,"o":"m 475 249 l 271 452 l 271 0 l 0 0 l 0 949 l 158 949 l 475 633 l 791 949 l 949 949 l 949 0 l 678 0 l 678 452 l 475 249 z "},"n":{"ha":949,"x_min":0,"x_max":882,"o":"m 271 452 l 271 0 l 0 0 l 0 949 l 158 949 l 610 497 l 610 949 l 882 949 l 882 0 l 724 0 l 271 452 z "},"o":{"ha":1017,"x_min":0,"x_max":949,"o":"m 475 271 q 618 331 559 271 q 678 475 678 391 q 618 618 678 559 q 475 678 559 678 q 331 618 391 678 q 271 475 271 559 q 331 331 271 391 q 475 271 391 271 m 475 0 q 139 139 278 0 q 0 475 0 278 q 139 810 0 671 q 475 949 278 949 q 810 810 671 949 q 949 475 949 671 q 810 139 949 278 q 475 0 671 0 z "},"p":{"ha":949,"x_min":0,"x_max":882,"o":"m 271 610 l 576 610 q 601 620 591 610 q 610 644 610 630 q 601 668 610 659 q 576 678 591 678 l 271 678 l 271 610 m 271 339 l 271 0 l 0 0 l 0 949 l 576 949 q 792 860 703 949 q 882 644 882 770 q 792 429 882 518 q 576 339 703 339 l 271 339 z "},"q":{"ha":1017,"x_min":0,"x_max":1042,"o":"m 475 271 q 618 331 559 271 q 678 475 678 391 q 618 618 678 559 q 475 678 559 678 q 331 618 391 678 q 271 475 271 559 q 331 331 271 391 q 475 271 391 271 m 702 56 q 475 0 600 0 q 139 139 278 0 q 0 475 0 278 q 139 810 0 671 q 475 949 278 949 q 810 810 671 949 q 949 475 949 671 q 893 248 949 349 l 1042 99 l 850 -92 l 702 56 z "},"r":{"ha":949,"x_min":0,"x_max":1005,"o":"m 271 610 l 576 610 q 601 620 591 610 q 610 644 610 630 q 601 668 610 659 q 576 678 591 678 l 271 678 l 271 610 m 271 339 l 271 0 l 0 0 l 0 949 l 576 949 q 792 860 703 949 q 882 644 882 770 q 792 429 882 518 q 656 349 732 369 l 1005 0 l 623 0 l 283 339 l 271 339 z "},"s":{"ha":949,"x_min":0,"x_max":882,"o":"m 305 339 q 90 429 179 339 q 0 644 0 518 q 90 860 0 770 q 305 949 179 949 l 882 949 l 882 678 l 305 678 q 281 668 291 678 q 271 644 271 659 q 281 620 271 630 q 305 610 291 610 l 576 610 q 792 521 703 610 q 882 305 882 431 q 792 90 882 179 q 576 0 703 0 l 0 0 l 0 271 l 576 271 q 601 281 591 271 q 610 305 610 291 q 601 329 610 319 q 576 339 591 339 l 305 339 z "},"t":{"ha":882,"x_min":0,"x_max":814,"o":"m 543 678 l 543 0 l 271 0 l 271 678 l 0 678 l 0 949 l 814 949 l 814 678 l 543 678 z "},"u":{"ha":949,"x_min":0,"x_max":882,"o":"m 0 949 l 271 949 l 271 441 q 321 321 271 370 q 441 271 370 271 q 561 321 511 271 q 610 441 610 370 l 610 949 l 882 949 l 882 441 q 752 129 882 258 q 441 0 623 0 q 129 129 258 0 q 0 441 0 258 l 0 949 z "},"v":{"ha":949,"x_min":-226,"x_max":882,"o":"m 610 949 l 882 949 l 882 0 l 724 0 l -226 949 l 158 949 l 610 497 l 610 949 z "},"w":{"ha":1017,"x_min":0,"x_max":949,"o":"m 475 317 l 158 0 l 0 0 l 0 949 l 271 949 l 271 497 l 475 701 l 678 497 l 678 949 l 949 949 l 949 0 l 791 0 l 475 317 z "},"x":{"ha":1017,"x_min":-191,"x_max":1141,"o":"m 283 475 l -24 783 l 167 974 l 475 666 l 758 949 l 1141 949 l 666 475 l 974 167 l 783 -24 l 475 283 l 191 0 l -191 0 l 283 475 z "},"y":{"ha":1017,"x_min":-191,"x_max":1141,"o":"m 283 475 l -24 783 l 167 974 l 475 666 l 758 949 l 1141 949 l 191 0 l -191 0 l 283 475 z "},"z":{"ha":1017,"x_min":-191,"x_max":1141,"o":"m 487 678 l 0 678 l 0 949 l 1141 949 l 463 271 l 949 271 l 949 0 l -191 0 l 487 678 z "},"{":{"ha":678,"x_min":0,"x_max":610,"o":"m 154 610 q 275 810 186 722 q 610 949 414 949 l 610 678 q 467 618 526 678 q 407 475 407 559 q 467 331 407 391 q 610 271 526 271 l 610 0 q 275 139 414 0 q 154 339 186 227 l 0 339 l 0 610 l 154 610 z "},"|":{"ha":339,"x_min":0,"x_max":271,"o":"m 271 0 l 0 0 l 0 949 l 271 949 l 271 0 z "},"}":{"ha":678,"x_min":0,"x_max":610,"o":"m 456 339 q 336 139 424 227 q 0 0 197 0 l 0 271 q 144 331 84 271 q 203 475 203 391 q 144 618 203 559 q 0 678 84 678 l 0 949 q 336 810 197 949 q 456 610 424 722 l 610 610 l 610 339 l 456 339 z "},"~":{"ha":678,"x_min":0,"x_max":610,"o":"m 0 339 l 0 610 l 610 610 l 610 339 l 0 339 z "}}}
